<?xml version="1.0" encoding="utf-8" standalone="no"?>
<!DOCTYPE svg PUBLIC "-//W3C//DTD SVG 1.1//EN"
  "http://www.w3.org/Graphics/SVG/1.1/DTD/svg11.dtd">
<svg xmlns:xlink="http://www.w3.org/1999/xlink" width="249.448819pt" height="187.086614pt" viewBox="0 0 249.448819 187.086614" xmlns="http://www.w3.org/2000/svg" version="1.1">
 <metadata>
  <rdf:RDF xmlns:dc="http://purl.org/dc/elements/1.1/" xmlns:cc="http://creativecommons.org/ns#" xmlns:rdf="http://www.w3.org/1999/02/22-rdf-syntax-ns#">
   <cc:Work>
    <dc:type rdf:resource="http://purl.org/dc/dcmitype/StillImage"/>
    <dc:date>2026-09-18T17:57:58.926628</dc:date>
    <dc:format>image/svg+xml</dc:format>
    <dc:creator>
     <cc:Agent>
      <dc:title>Matplotlib v3.11.2, https://matplotlib.org/</dc:title>
     </cc:Agent>
    </dc:creator>
   </cc:Work>
  </rdf:RDF>
 </metadata>
 <defs>
  <style type="text/css">*{stroke-linejoin: round; stroke-linecap: butt}</style>
 </defs>
 <g id="figure_1">
  <g id="patch_1">
   <path d="M 0 187.086614
L 249.448819 187.086614
L 249.448819 0
L 0 0
z
" style="fill: #ffffff"/>
  </g>
  <g id="axes_1">
   <g id="patch_2">
    <path d="M 38.664567 158.088189
L 245.707087 158.088189
L 245.707087 17.773228
L 38.664567 17.773228
z
" style="fill: #ffffff"/>
   </g>
   <g id="matplotlib.axis_1">
    <g id="xtick_1">
     <g id="line2d_1">
      <defs>
       <path id="m22dcc8efb1" d="M 0 0
L 0 3.5
" style="stroke: #253442; stroke-width: 0.8"/>
      </defs>
      <g>
       <use xlink:href="#m22dcc8efb1" x="43.594151" y="158.088189" style="fill: #253442; stroke: #253442; stroke-width: 0.8"/>
      </g>
     </g>
     <g id="text_1">
      <text style="font-size: 7.5px; font-family: 'Times New Roman', 'Times', 'DejaVu Serif', serif; text-anchor: middle; fill: #253442" x="43.594151" y="170.288384" transform="rotate(-0 43.594151 170.288384)">100</text>
     </g>
    </g>
    <g id="xtick_2">
     <g id="line2d_2">
      <g>
       <use xlink:href="#m22dcc8efb1" x="92.889989" y="158.088189" style="fill: #253442; stroke: #253442; stroke-width: 0.8"/>
      </g>
     </g>
     <g id="text_2">
      <text style="font-size: 7.5px; font-family: 'Times New Roman', 'Times', 'DejaVu Serif', serif; text-anchor: middle; fill: #253442" x="92.889989" y="170.288384" transform="rotate(-0 92.889989 170.288384)">150</text>
     </g>
    </g>
    <g id="xtick_3">
     <g id="line2d_3">
      <g>
       <use xlink:href="#m22dcc8efb1" x="142.185827" y="158.088189" style="fill: #253442; stroke: #253442; stroke-width: 0.8"/>
      </g>
     </g>
     <g id="text_3">
      <text style="font-size: 7.5px; font-family: 'Times New Roman', 'Times', 'DejaVu Serif', serif; text-anchor: middle; fill: #253442" x="142.185827" y="170.288384" transform="rotate(-0 142.185827 170.288384)">200</text>
     </g>
    </g>
    <g id="xtick_4">
     <g id="line2d_4">
      <g>
       <use xlink:href="#m22dcc8efb1" x="191.481665" y="158.088189" style="fill: #253442; stroke: #253442; stroke-width: 0.8"/>
      </g>
     </g>
     <g id="text_4">
      <text style="font-size: 7.5px; font-family: 'Times New Roman', 'Times', 'DejaVu Serif', serif; text-anchor: middle; fill: #253442" x="191.481665" y="170.288384" transform="rotate(-0 191.481665 170.288384)">250</text>
     </g>
    </g>
    <g id="xtick_5">
     <g id="line2d_5">
      <g>
       <use xlink:href="#m22dcc8efb1" x="240.777503" y="158.088189" style="fill: #253442; stroke: #253442; stroke-width: 0.8"/>
      </g>
     </g>
     <g id="text_5">
      <text style="font-size: 7.5px; font-family: 'Times New Roman', 'Times', 'DejaVu Serif', serif; text-anchor: middle; fill: #253442" x="240.777503" y="170.288384" transform="rotate(-0 240.777503 170.288384)">300</text>
     </g>
    </g>
    <g id="text_6">
     <text style="font-size: 8px; font-family: 'Times New Roman', 'Times', 'DejaVu Serif', serif; text-anchor: middle; fill: #253442" x="142.185827" y="181.462037" transform="rotate(-0 142.185827 181.462037)">Number of real function evaluations</text>
    </g>
   </g>
   <g id="matplotlib.axis_2">
    <g id="ytick_1">
     <g id="line2d_6">
      <defs>
       <path id="m9ddcd3faa6" d="M 0 0
L -3.5 0
" style="stroke: #253442; stroke-width: 0.8"/>
      </defs>
      <g>
       <use xlink:href="#m9ddcd3faa6" x="38.664567" y="120.856681" style="fill: #253442; stroke: #253442; stroke-width: 0.8"/>
      </g>
     </g>
     <g id="text_7">
      <text style="font-size: 7.5px; font-family: 'Times New Roman', 'Times', 'DejaVu Serif', serif; text-anchor: end; fill: #253442" x="31.664567" y="123.456779" transform="rotate(-0 31.664567 123.456779)">20</text>
     </g>
    </g>
    <g id="ytick_2">
     <g id="line2d_7">
      <g>
       <use xlink:href="#m9ddcd3faa6" x="38.664567" y="68.014644" style="fill: #253442; stroke: #253442; stroke-width: 0.8"/>
      </g>
     </g>
     <g id="text_8">
      <text style="font-size: 7.5px; font-family: 'Times New Roman', 'Times', 'DejaVu Serif', serif; text-anchor: end; fill: #253442" x="31.664567" y="70.614741" transform="rotate(-0 31.664567 70.614741)">25</text>
     </g>
    </g>
    <g id="text_9">
     <!-- IGD$^+$ -->
     <g style="fill: #253442" transform="translate(18.438004 98.330709) rotate(-90)">
      <text>
       <tspan x="0" y="-0.6335" style="font-size: 8px; font-family: 'Times New Roman'; fill: #253442">I</tspan>
       <tspan x="2.664062" y="-0.6335" style="font-size: 8px; font-family: 'Times New Roman'; fill: #253442">G</tspan>
       <tspan x="8.441406" y="-0.6335" style="font-size: 8px; font-family: 'Times New Roman'; fill: #253442">D</tspan>
       <tspan x="15.46475" y="-3.9375" style="font-size: 5.6px; font-family: 'STIXGeneral'; fill: #253442">+</tspan>
      </text>
     </g>
    </g>
   </g>
   <g id="patch_3">
    <path d="M 38.664567 158.088189
L 38.664567 17.773228
" style="fill: none; stroke: #253442; stroke-width: 0.65; stroke-linejoin: miter; stroke-linecap: square"/>
   </g>
   <g id="patch_4">
    <path d="M 245.707087 158.088189
L 245.707087 17.773228
" style="fill: none; stroke: #253442; stroke-width: 0.65; stroke-linejoin: miter; stroke-linecap: square"/>
   </g>
   <g id="patch_5">
    <path d="M 38.664567 158.088189
L 245.707087 158.088189
" style="fill: none; stroke: #253442; stroke-width: 0.65; stroke-linejoin: miter; stroke-linecap: square"/>
   </g>
   <g id="patch_6">
    <path d="M 38.664567 17.773228
L 245.707087 17.773228
" style="fill: none; stroke: #253442; stroke-width: 0.65; stroke-linejoin: miter; stroke-linecap: square"/>
   </g>
   <g id="text_10">
    <!-- (f) WFG8, $M=20$ -->
    <g style="fill: #253442" transform="translate(38.664567 13.773228)">
     <text>
      <tspan x="0" y="-0.09375" style="font-size: 8.5px; font-family: 'Times New Roman'; fill: #253442">(</tspan>
      <tspan x="2.830566" y="-0.09375" style="font-size: 8.5px; font-family: 'Times New Roman'; fill: #253442">f</tspan>
      <tspan x="5.661133" y="-0.09375" style="font-size: 8.5px; font-family: 'Times New Roman'; fill: #253442">)</tspan>
      <tspan x="8.491699" y="-0.09375" style="font-size: 8.5px; font-family: 'Times New Roman'; fill: #253442"> </tspan>
      <tspan x="10.616699" y="-0.09375" style="font-size: 8.5px; font-family: 'Times New Roman'; fill: #253442">W</tspan>
      <tspan x="18.639404" y="-0.09375" style="font-size: 8.5px; font-family: 'Times New Roman'; fill: #253442">F</tspan>
      <tspan x="23.366699" y="-0.09375" style="font-size: 8.5px; font-family: 'Times New Roman'; fill: #253442">G</tspan>
      <tspan x="29.505127" y="-0.09375" style="font-size: 8.5px; font-family: 'Times New Roman'; fill: #253442">8</tspan>
      <tspan x="33.755127" y="-0.09375" style="font-size: 8.5px; font-family: 'Times New Roman'; fill: #253442">,</tspan>
      <tspan x="35.880127" y="-0.09375" style="font-size: 8.5px; font-family: 'Times New Roman'; fill: #253442"> </tspan>
      <tspan x="38.005127" y="-0.09375" style="font-style: italic; font-size: 8.5px; font-family: 'STIXGeneral'; fill: #253442">M</tspan>
      <tspan x="46.785709" y="-0.09375" style="font-size: 8.5px; font-family: 'STIXGeneral'; fill: #253442">=</tspan>
      <tspan x="54.308279" y="-0.09375" style="font-size: 8.5px; font-family: 'STIXGeneral'; fill: #253442">2</tspan>
      <tspan x="58.558325" y="-0.09375" style="font-size: 8.5px; font-family: 'STIXGeneral'; fill: #253442">0</tspan>
     </text>
    </g>
   </g>
   <g id="line2d_8">
    <path d="M 43.594151 74.454527
L 68.24207 82.257878
L 92.889989 86.503206
L 117.537908 87.268159
L 142.185827 91.31628
L 166.833746 92.730479
L 191.481665 94.845644
L 216.129584 95.478388
L 240.777503 96.111814
" clip-path="url(#p8254d8b3c5)" style="fill: none; stroke: #24658c; stroke-linecap: square"/>
    <defs>
     <path id="mb901d68df3" d="M 0 -1.4
L -1.4 1.4
L 1.4 1.4
z
" style="stroke: #24658c; stroke-width: 0.8; stroke-linejoin: miter"/>
    </defs>
    <g clip-path="url(#p8254d8b3c5)">
     <use xlink:href="#mb901d68df3" x="43.594151" y="74.454527" style="fill-opacity: 0; stroke: #24658c; stroke-width: 0.8; stroke-linejoin: miter"/>
     <use xlink:href="#mb901d68df3" x="68.24207" y="82.257878" style="fill-opacity: 0; stroke: #24658c; stroke-width: 0.8; stroke-linejoin: miter"/>
     <use xlink:href="#mb901d68df3" x="92.889989" y="86.503206" style="fill-opacity: 0; stroke: #24658c; stroke-width: 0.8; stroke-linejoin: miter"/>
     <use xlink:href="#mb901d68df3" x="117.537908" y="87.268159" style="fill-opacity: 0; stroke: #24658c; stroke-width: 0.8; stroke-linejoin: miter"/>
     <use xlink:href="#mb901d68df3" x="142.185827" y="91.31628" style="fill-opacity: 0; stroke: #24658c; stroke-width: 0.8; stroke-linejoin: miter"/>
     <use xlink:href="#mb901d68df3" x="166.833746" y="92.730479" style="fill-opacity: 0; stroke: #24658c; stroke-width: 0.8; stroke-linejoin: miter"/>
     <use xlink:href="#mb901d68df3" x="191.481665" y="94.845644" style="fill-opacity: 0; stroke: #24658c; stroke-width: 0.8; stroke-linejoin: miter"/>
     <use xlink:href="#mb901d68df3" x="216.129584" y="95.478388" style="fill-opacity: 0; stroke: #24658c; stroke-width: 0.8; stroke-linejoin: miter"/>
     <use xlink:href="#mb901d68df3" x="240.777503" y="96.111814" style="fill-opacity: 0; stroke: #24658c; stroke-width: 0.8; stroke-linejoin: miter"/>
    </g>
   </g>
   <g id="line2d_9">
    <path d="M 43.594151 72.378647
L 68.24207 91.330604
L 92.889989 102.747097
L 117.537908 105.177942
L 142.185827 112.174612
L 166.833746 115.011074
L 191.481665 119.248841
L 216.129584 120.062146
L 240.777503 122.026318
" clip-path="url(#p8254d8b3c5)" style="fill: none; stroke: #ad5f25; stroke-linecap: square"/>
    <defs>
     <path id="md3ada1948a" d="M 0 1.4
C 0.371284 1.4 0.727412 1.252487 0.989949 0.989949
C 1.252487 0.727412 1.4 0.371284 1.4 0
C 1.4 -0.371284 1.252487 -0.727412 0.989949 -0.989949
C 0.727412 -1.252487 0.371284 -1.4 0 -1.4
C -0.371284 -1.4 -0.727412 -1.252487 -0.989949 -0.989949
C -1.252487 -0.727412 -1.4 -0.371284 -1.4 0
C -1.4 0.371284 -1.252487 0.727412 -0.989949 0.989949
C -0.727412 1.252487 -0.371284 1.4 0 1.4
z
" style="stroke: #ad5f25; stroke-width: 0.8"/>
    </defs>
    <g clip-path="url(#p8254d8b3c5)">
     <use xlink:href="#md3ada1948a" x="43.594151" y="72.378647" style="fill-opacity: 0; stroke: #ad5f25; stroke-width: 0.8"/>
     <use xlink:href="#md3ada1948a" x="68.24207" y="91.330604" style="fill-opacity: 0; stroke: #ad5f25; stroke-width: 0.8"/>
     <use xlink:href="#md3ada1948a" x="92.889989" y="102.747097" style="fill-opacity: 0; stroke: #ad5f25; stroke-width: 0.8"/>
     <use xlink:href="#md3ada1948a" x="117.537908" y="105.177942" style="fill-opacity: 0; stroke: #ad5f25; stroke-width: 0.8"/>
     <use xlink:href="#md3ada1948a" x="142.185827" y="112.174612" style="fill-opacity: 0; stroke: #ad5f25; stroke-width: 0.8"/>
     <use xlink:href="#md3ada1948a" x="166.833746" y="115.011074" style="fill-opacity: 0; stroke: #ad5f25; stroke-width: 0.8"/>
     <use xlink:href="#md3ada1948a" x="191.481665" y="119.248841" style="fill-opacity: 0; stroke: #ad5f25; stroke-width: 0.8"/>
     <use xlink:href="#md3ada1948a" x="216.129584" y="120.062146" style="fill-opacity: 0; stroke: #ad5f25; stroke-width: 0.8"/>
     <use xlink:href="#md3ada1948a" x="240.777503" y="122.026318" style="fill-opacity: 0; stroke: #ad5f25; stroke-width: 0.8"/>
    </g>
   </g>
   <g id="line2d_10">
    <path d="M 68.24207 74.378325
L 92.889989 77.76633
L 117.537908 77.886935
L 142.185827 78.083415
L 166.833746 78.517632
L 191.481665 79.067208
L 216.129584 79.160395
L 240.777503 79.204464
" clip-path="url(#p8254d8b3c5)" style="fill: none; stroke: #28756b; stroke-linecap: square"/>
    <defs>
     <path id="m19dbd4d412" d="M 0 -1.4
L -0.31432 -0.432624
L -1.331479 -0.432624
L -0.50858 0.165248
L -0.822899 1.132624
L -0 0.534752
L 0.822899 1.132624
L 0.50858 0.165248
L 1.331479 -0.432624
L 0.31432 -0.432624
z
" style="stroke: #28756b; stroke-width: 0.8; stroke-linejoin: bevel"/>
    </defs>
    <g clip-path="url(#p8254d8b3c5)">
     <use xlink:href="#m19dbd4d412" x="68.24207" y="74.378325" style="fill-opacity: 0; stroke: #28756b; stroke-width: 0.8; stroke-linejoin: bevel"/>
     <use xlink:href="#m19dbd4d412" x="92.889989" y="77.76633" style="fill-opacity: 0; stroke: #28756b; stroke-width: 0.8; stroke-linejoin: bevel"/>
     <use xlink:href="#m19dbd4d412" x="117.537908" y="77.886935" style="fill-opacity: 0; stroke: #28756b; stroke-width: 0.8; stroke-linejoin: bevel"/>
     <use xlink:href="#m19dbd4d412" x="142.185827" y="78.083415" style="fill-opacity: 0; stroke: #28756b; stroke-width: 0.8; stroke-linejoin: bevel"/>
     <use xlink:href="#m19dbd4d412" x="166.833746" y="78.517632" style="fill-opacity: 0; stroke: #28756b; stroke-width: 0.8; stroke-linejoin: bevel"/>
     <use xlink:href="#m19dbd4d412" x="191.481665" y="79.067208" style="fill-opacity: 0; stroke: #28756b; stroke-width: 0.8; stroke-linejoin: bevel"/>
     <use xlink:href="#m19dbd4d412" x="216.129584" y="79.160395" style="fill-opacity: 0; stroke: #28756b; stroke-width: 0.8; stroke-linejoin: bevel"/>
     <use xlink:href="#m19dbd4d412" x="240.777503" y="79.204464" style="fill-opacity: 0; stroke: #28756b; stroke-width: 0.8; stroke-linejoin: bevel"/>
    </g>
   </g>
   <g id="line2d_11">
    <path d="M 43.594151 72.436528
L 68.24207 74.028873
L 92.889989 77.97678
L 117.537908 79.85717
L 142.185827 83.202872
L 166.833746 86.526593
L 191.481665 88.90103
L 216.129584 91.403373
L 240.777503 94.091848
" clip-path="url(#p8254d8b3c5)" style="fill: none; stroke: #5c5187; stroke-linecap: square"/>
    <defs>
     <path id="mf4754e46e7" d="M -1.4 1.4
L 1.4 1.4
L 1.4 -1.4
L -1.4 -1.4
z
" style="stroke: #5c5187; stroke-width: 0.8; stroke-linejoin: miter"/>
    </defs>
    <g clip-path="url(#p8254d8b3c5)">
     <use xlink:href="#mf4754e46e7" x="43.594151" y="72.436528" style="fill-opacity: 0; stroke: #5c5187; stroke-width: 0.8; stroke-linejoin: miter"/>
     <use xlink:href="#mf4754e46e7" x="68.24207" y="74.028873" style="fill-opacity: 0; stroke: #5c5187; stroke-width: 0.8; stroke-linejoin: miter"/>
     <use xlink:href="#mf4754e46e7" x="92.889989" y="77.97678" style="fill-opacity: 0; stroke: #5c5187; stroke-width: 0.8; stroke-linejoin: miter"/>
     <use xlink:href="#mf4754e46e7" x="117.537908" y="79.85717" style="fill-opacity: 0; stroke: #5c5187; stroke-width: 0.8; stroke-linejoin: miter"/>
     <use xlink:href="#mf4754e46e7" x="142.185827" y="83.202872" style="fill-opacity: 0; stroke: #5c5187; stroke-width: 0.8; stroke-linejoin: miter"/>
     <use xlink:href="#mf4754e46e7" x="166.833746" y="86.526593" style="fill-opacity: 0; stroke: #5c5187; stroke-width: 0.8; stroke-linejoin: miter"/>
     <use xlink:href="#mf4754e46e7" x="191.481665" y="88.90103" style="fill-opacity: 0; stroke: #5c5187; stroke-width: 0.8; stroke-linejoin: miter"/>
     <use xlink:href="#mf4754e46e7" x="216.129584" y="91.403373" style="fill-opacity: 0; stroke: #5c5187; stroke-width: 0.8; stroke-linejoin: miter"/>
     <use xlink:href="#mf4754e46e7" x="240.777503" y="94.091848" style="fill-opacity: 0; stroke: #5c5187; stroke-width: 0.8; stroke-linejoin: miter"/>
    </g>
   </g>
   <g id="line2d_12">
    <path d="M 43.594151 71.20732
L 68.24207 74.918735
L 92.889989 76.399585
L 117.537908 81.019581
L 142.185827 95.348555
L 166.833746 99.910484
L 191.481665 123.552765
L 216.129584 133.644545
L 240.777503 144.785027
" clip-path="url(#p8254d8b3c5)" style="fill: none; stroke: #7c828b; stroke-linecap: square"/>
    <defs>
     <path id="ma82abb82e0" d="M -1.4 1.4
L 1.4 -1.4
M -1.4 -1.4
L 1.4 1.4
" style="stroke: #7c828b; stroke-width: 0.8"/>
    </defs>
    <g clip-path="url(#p8254d8b3c5)">
     <use xlink:href="#ma82abb82e0" x="43.594151" y="71.20732" style="fill-opacity: 0; stroke: #7c828b; stroke-width: 0.8"/>
     <use xlink:href="#ma82abb82e0" x="68.24207" y="74.918735" style="fill-opacity: 0; stroke: #7c828b; stroke-width: 0.8"/>
     <use xlink:href="#ma82abb82e0" x="92.889989" y="76.399585" style="fill-opacity: 0; stroke: #7c828b; stroke-width: 0.8"/>
     <use xlink:href="#ma82abb82e0" x="117.537908" y="81.019581" style="fill-opacity: 0; stroke: #7c828b; stroke-width: 0.8"/>
     <use xlink:href="#ma82abb82e0" x="142.185827" y="95.348555" style="fill-opacity: 0; stroke: #7c828b; stroke-width: 0.8"/>
     <use xlink:href="#ma82abb82e0" x="166.833746" y="99.910484" style="fill-opacity: 0; stroke: #7c828b; stroke-width: 0.8"/>
     <use xlink:href="#ma82abb82e0" x="191.481665" y="123.552765" style="fill-opacity: 0; stroke: #7c828b; stroke-width: 0.8"/>
     <use xlink:href="#ma82abb82e0" x="216.129584" y="133.644545" style="fill-opacity: 0; stroke: #7c828b; stroke-width: 0.8"/>
     <use xlink:href="#ma82abb82e0" x="240.777503" y="144.785027" style="fill-opacity: 0; stroke: #7c828b; stroke-width: 0.8"/>
    </g>
   </g>
   <g id="line2d_13">
    <path d="M 43.594151 71.871186
L 68.24207 75.10994
L 92.889989 78.225714
L 117.537908 80.888061
L 142.185827 86.418796
L 166.833746 86.42306
L 191.481665 86.700846
L 216.129584 88.10468
L 240.777503 88.154733
" clip-path="url(#p8254d8b3c5)" style="fill: none; stroke: #414b54; stroke-linecap: square"/>
    <defs>
     <path id="mc51fecf444" d="M -1.4 0
L 1.4 0
M 0 1.4
L 0 -1.4
" style="stroke: #414b54; stroke-width: 0.8"/>
    </defs>
    <g clip-path="url(#p8254d8b3c5)">
     <use xlink:href="#mc51fecf444" x="43.594151" y="71.871186" style="fill-opacity: 0; stroke: #414b54; stroke-width: 0.8"/>
     <use xlink:href="#mc51fecf444" x="68.24207" y="75.10994" style="fill-opacity: 0; stroke: #414b54; stroke-width: 0.8"/>
     <use xlink:href="#mc51fecf444" x="92.889989" y="78.225714" style="fill-opacity: 0; stroke: #414b54; stroke-width: 0.8"/>
     <use xlink:href="#mc51fecf444" x="117.537908" y="80.888061" style="fill-opacity: 0; stroke: #414b54; stroke-width: 0.8"/>
     <use xlink:href="#mc51fecf444" x="142.185827" y="86.418796" style="fill-opacity: 0; stroke: #414b54; stroke-width: 0.8"/>
     <use xlink:href="#mc51fecf444" x="166.833746" y="86.42306" style="fill-opacity: 0; stroke: #414b54; stroke-width: 0.8"/>
     <use xlink:href="#mc51fecf444" x="191.481665" y="86.700846" style="fill-opacity: 0; stroke: #414b54; stroke-width: 0.8"/>
     <use xlink:href="#mc51fecf444" x="216.129584" y="88.10468" style="fill-opacity: 0; stroke: #414b54; stroke-width: 0.8"/>
     <use xlink:href="#mc51fecf444" x="240.777503" y="88.154733" style="fill-opacity: 0; stroke: #414b54; stroke-width: 0.8"/>
    </g>
   </g>
   <g id="legend_1">
    <g id="line2d_14">
     <path d="M 138.000055 25.248228
L 143.850055 25.248228
L 149.700055 25.248228
" style="fill: none; stroke: #b23a48; stroke-width: 1.9; stroke-linecap: square"/>
     <defs>
      <path id="m460b2427ab" d="M 0 2.545584
L 2.545584 0
L 0 -2.545584
L -2.545584 0
z
" style="stroke: #b23a48; stroke-width: 0.9; stroke-linejoin: miter"/>
     </defs>
     <g>
      <use xlink:href="#m460b2427ab" x="143.850055" y="25.248228" style="fill: #b23a48; stroke: #b23a48; stroke-width: 0.9; stroke-linejoin: miter"/>
     </g>
    </g>
    <g id="text_11">
     <text style="font-size: 6.5px; font-family: 'Times New Roman', 'Times', 'DejaVu Serif', serif; text-anchor: start; fill: #253442" x="152.950055" y="27.523228" transform="rotate(-0 152.950055 27.523228)">PACDIS (ours)</text>
    </g>
    <g id="line2d_15">
     <path d="M 138.000055 33.28106
L 143.850055 33.28106
L 149.700055 33.28106
" style="fill: none; stroke: #24658c; stroke-width: 1.3; stroke-linecap: square"/>
     <defs>
      <path id="m13c8266aee" d="M 0 -1.8
L -1.8 1.8
L 1.8 1.8
z
" style="stroke: #24658c; stroke-width: 0.9; stroke-linejoin: miter"/>
     </defs>
     <g>
      <use xlink:href="#m13c8266aee" x="143.850055" y="33.28106" style="fill-opacity: 0; stroke: #24658c; stroke-width: 0.9; stroke-linejoin: miter"/>
     </g>
    </g>
    <g id="text_12">
     <text style="font-size: 6.5px; font-family: 'Times New Roman', 'Times', 'DejaVu Serif', serif; text-anchor: start; fill: #253442" x="152.950055" y="35.55606" transform="rotate(-0 152.950055 35.55606)">REMO</text>
    </g>
    <g id="line2d_16">
     <path d="M 138.000055 41.313892
L 143.850055 41.313892
L 149.700055 41.313892
" style="fill: none; stroke: #ad5f25; stroke-width: 1.3; stroke-linecap: square"/>
     <defs>
      <path id="m444e5bf1c3" d="M 0 1.8
C 0.477366 1.8 0.935244 1.610341 1.272792 1.272792
C 1.610341 0.935244 1.8 0.477366 1.8 0
C 1.8 -0.477366 1.610341 -0.935244 1.272792 -1.272792
C 0.935244 -1.610341 0.477366 -1.8 0 -1.8
C -0.477366 -1.8 -0.935244 -1.610341 -1.272792 -1.272792
C -1.610341 -0.935244 -1.8 -0.477366 -1.8 0
C -1.8 0.477366 -1.610341 0.935244 -1.272792 1.272792
C -0.935244 1.610341 -0.477366 1.8 0 1.8
z
" style="stroke: #ad5f25; stroke-width: 0.9"/>
     </defs>
     <g>
      <use xlink:href="#m444e5bf1c3" x="143.850055" y="41.313892" style="fill-opacity: 0; stroke: #ad5f25; stroke-width: 0.9"/>
     </g>
    </g>
    <g id="text_13">
     <text style="font-size: 6.5px; font-family: 'Times New Roman', 'Times', 'DejaVu Serif', serif; text-anchor: start; fill: #253442" x="152.950055" y="43.588892" transform="rotate(-0 152.950055 43.588892)">PIEA</text>
    </g>
    <g id="line2d_17">
     <path d="M 138.000055 49.346724
L 143.850055 49.346724
L 149.700055 49.346724
" style="fill: none; stroke: #28756b; stroke-width: 1.3; stroke-linecap: square"/>
     <defs>
      <path id="m26ffbfe35b" d="M 0 -1.8
L -0.404125 -0.556231
L -1.711902 -0.556231
L -0.653888 0.212461
L -1.058013 1.456231
L -0 0.687539
L 1.058013 1.456231
L 0.653888 0.212461
L 1.711902 -0.556231
L 0.404125 -0.556231
z
" style="stroke: #28756b; stroke-width: 0.9; stroke-linejoin: bevel"/>
     </defs>
     <g>
      <use xlink:href="#m26ffbfe35b" x="143.850055" y="49.346724" style="fill-opacity: 0; stroke: #28756b; stroke-width: 0.9; stroke-linejoin: bevel"/>
     </g>
    </g>
    <g id="text_14">
     <text style="font-size: 6.5px; font-family: 'Times New Roman', 'Times', 'DejaVu Serif', serif; text-anchor: start; fill: #253442" x="152.950055" y="51.621724" transform="rotate(-0 152.950055 51.621724)">CSEA</text>
    </g>
    <g id="line2d_18">
     <path d="M 198.469352 25.248228
L 204.319352 25.248228
L 210.169352 25.248228
" style="fill: none; stroke: #5c5187; stroke-width: 1.3; stroke-linecap: square"/>
     <defs>
      <path id="md88f8fbd9a" d="M -1.8 1.8
L 1.8 1.8
L 1.8 -1.8
L -1.8 -1.8
z
" style="stroke: #5c5187; stroke-width: 0.9; stroke-linejoin: miter"/>
     </defs>
     <g>
      <use xlink:href="#md88f8fbd9a" x="204.319352" y="25.248228" style="fill-opacity: 0; stroke: #5c5187; stroke-width: 0.9; stroke-linejoin: miter"/>
     </g>
    </g>
    <g id="text_15">
     <text style="font-size: 6.5px; font-family: 'Times New Roman', 'Times', 'DejaVu Serif', serif; text-anchor: start; fill: #253442" x="213.419352" y="27.523228" transform="rotate(-0 213.419352 27.523228)">PC-SAEA</text>
    </g>
    <g id="line2d_19">
     <path d="M 198.469352 33.28106
L 204.319352 33.28106
L 210.169352 33.28106
" style="fill: none; stroke: #7c828b; stroke-width: 1.3; stroke-linecap: square"/>
     <defs>
      <path id="m9372fff119" d="M -1.8 1.8
L 1.8 -1.8
M -1.8 -1.8
L 1.8 1.8
" style="stroke: #7c828b; stroke-width: 0.9"/>
     </defs>
     <g>
      <use xlink:href="#m9372fff119" x="204.319352" y="33.28106" style="fill-opacity: 0; stroke: #7c828b; stroke-width: 0.9"/>
     </g>
    </g>
    <g id="text_16">
     <text style="font-size: 6.5px; font-family: 'Times New Roman', 'Times', 'DejaVu Serif', serif; text-anchor: start; fill: #253442" x="213.419352" y="35.55606" transform="rotate(-0 213.419352 35.55606)">K-RVEA</text>
    </g>
    <g id="line2d_20">
     <path d="M 198.469352 41.313892
L 204.319352 41.313892
L 210.169352 41.313892
" style="fill: none; stroke: #414b54; stroke-width: 1.3; stroke-linecap: square"/>
     <defs>
      <path id="me152d474d2" d="M -1.8 0
L 1.8 0
M 0 1.8
L 0 -1.8
" style="stroke: #414b54; stroke-width: 0.9"/>
     </defs>
     <g>
      <use xlink:href="#me152d474d2" x="204.319352" y="41.313892" style="fill-opacity: 0; stroke: #414b54; stroke-width: 0.9"/>
     </g>
    </g>
    <g id="text_17">
     <text style="font-size: 6.5px; font-family: 'Times New Roman', 'Times', 'DejaVu Serif', serif; text-anchor: start; fill: #253442" x="213.419352" y="43.588892" transform="rotate(-0 213.419352 43.588892)">MCEA/D</text>
    </g>
   </g>
   <g id="line2d_21">
    <path d="M 43.594151 74.179588
L 68.24207 93.371473
L 92.889989 103.247051
L 117.537908 114.832387
L 142.185827 120.526186
L 166.833746 124.755291
L 191.481665 134.178782
L 216.129584 135.348333
L 240.777503 142.196774
" clip-path="url(#p8254d8b3c5)" style="fill: none; stroke: #b23a48; stroke-width: 1.6; stroke-linecap: square"/>
    <defs>
     <path id="m33154bdc21" d="M 0 2.12132
L 2.12132 0
L 0 -2.12132
L -2.12132 0
z
" style="stroke: #b23a48; stroke-linejoin: miter"/>
    </defs>
    <g clip-path="url(#p8254d8b3c5)">
     <use xlink:href="#m33154bdc21" x="43.594151" y="74.179588" style="fill: #b23a48; stroke: #b23a48; stroke-linejoin: miter"/>
     <use xlink:href="#m33154bdc21" x="68.24207" y="93.371473" style="fill: #b23a48; stroke: #b23a48; stroke-linejoin: miter"/>
     <use xlink:href="#m33154bdc21" x="92.889989" y="103.247051" style="fill: #b23a48; stroke: #b23a48; stroke-linejoin: miter"/>
     <use xlink:href="#m33154bdc21" x="117.537908" y="114.832387" style="fill: #b23a48; stroke: #b23a48; stroke-linejoin: miter"/>
     <use xlink:href="#m33154bdc21" x="142.185827" y="120.526186" style="fill: #b23a48; stroke: #b23a48; stroke-linejoin: miter"/>
     <use xlink:href="#m33154bdc21" x="166.833746" y="124.755291" style="fill: #b23a48; stroke: #b23a48; stroke-linejoin: miter"/>
     <use xlink:href="#m33154bdc21" x="191.481665" y="134.178782" style="fill: #b23a48; stroke: #b23a48; stroke-linejoin: miter"/>
     <use xlink:href="#m33154bdc21" x="216.129584" y="135.348333" style="fill: #b23a48; stroke: #b23a48; stroke-linejoin: miter"/>
     <use xlink:href="#m33154bdc21" x="240.777503" y="142.196774" style="fill: #b23a48; stroke: #b23a48; stroke-linejoin: miter"/>
    </g>
   </g>
  </g>
 </g>
 <defs>
  <clipPath id="p8254d8b3c5">
   <rect x="38.664567" y="17.773228" width="207.04252" height="140.314961"/>
  </clipPath>
 </defs>
</svg>
