<?xml version="1.0" encoding="utf-8" standalone="no"?>
<!DOCTYPE svg PUBLIC "-//W3C//DTD SVG 1.1//EN"
  "http://www.w3.org/Graphics/SVG/1.1/DTD/svg11.dtd">
<svg xmlns:xlink="http://www.w3.org/1999/xlink" width="249.448819pt" height="187.086614pt" viewBox="0 0 249.448819 187.086614" xmlns="http://www.w3.org/2000/svg" version="1.1">
 <metadata>
  <rdf:RDF xmlns:dc="http://purl.org/dc/elements/1.1/" xmlns:cc="http://creativecommons.org/ns#" xmlns:rdf="http://www.w3.org/1999/02/22-rdf-syntax-ns#">
   <cc:Work>
    <dc:type rdf:resource="http://purl.org/dc/dcmitype/StillImage"/>
    <dc:date>2026-09-16T18:35:22.558014</dc:date>
    <dc:format>image/svg+xml</dc:format>
    <dc:creator>
     <cc:Agent>
      <dc:title>Matplotlib v3.11.2, https://matplotlib.org/</dc:title>
     </cc:Agent>
    </dc:creator>
   </cc:Work>
  </rdf:RDF>
 </metadata>
 <defs>
  <style type="text/css">*{stroke-linejoin: round; stroke-linecap: butt}</style>
 </defs>
 <g id="figure_1">
  <g id="patch_1">
   <path d="M 0 187.086614 
L 249.448819 187.086614 
L 249.448819 0 
L 0 0 
z
" style="fill: #ffffff"/>
  </g>
  <g id="axes_1">
   <g id="patch_2">
    <path d="M 38.664567 158.088189 
L 245.707087 158.088189 
L 245.707087 17.773228 
L 38.664567 17.773228 
z
" style="fill: #ffffff"/>
   </g>
   <g id="matplotlib.axis_1">
    <g id="xtick_1">
     <g id="line2d_1">
      <defs>
       <path id="m510d884469" d="M 0 0 
L 0 3.5 
" style="stroke: #253442; stroke-width: 0.8"/>
      </defs>
      <g>
       <use xlink:href="#m510d884469" x="43.594151" y="158.088189" style="fill: #253442; stroke: #253442; stroke-width: 0.8"/>
      </g>
     </g>
     <g id="text_1">
      <text style="font-size: 7.5px; font-family: 'Times New Roman', 'Times', 'DejaVu Serif', serif; text-anchor: middle; fill: #253442" x="43.594151" y="170.288384" transform="rotate(-0 43.594151 170.288384)">100</text>
     </g>
    </g>
    <g id="xtick_2">
     <g id="line2d_2">
      <g>
       <use xlink:href="#m510d884469" x="92.889989" y="158.088189" style="fill: #253442; stroke: #253442; stroke-width: 0.8"/>
      </g>
     </g>
     <g id="text_2">
      <text style="font-size: 7.5px; font-family: 'Times New Roman', 'Times', 'DejaVu Serif', serif; text-anchor: middle; fill: #253442" x="92.889989" y="170.288384" transform="rotate(-0 92.889989 170.288384)">150</text>
     </g>
    </g>
    <g id="xtick_3">
     <g id="line2d_3">
      <g>
       <use xlink:href="#m510d884469" x="142.185827" y="158.088189" style="fill: #253442; stroke: #253442; stroke-width: 0.8"/>
      </g>
     </g>
     <g id="text_3">
      <text style="font-size: 7.5px; font-family: 'Times New Roman', 'Times', 'DejaVu Serif', serif; text-anchor: middle; fill: #253442" x="142.185827" y="170.288384" transform="rotate(-0 142.185827 170.288384)">200</text>
     </g>
    </g>
    <g id="xtick_4">
     <g id="line2d_4">
      <g>
       <use xlink:href="#m510d884469" x="191.481665" y="158.088189" style="fill: #253442; stroke: #253442; stroke-width: 0.8"/>
      </g>
     </g>
     <g id="text_4">
      <text style="font-size: 7.5px; font-family: 'Times New Roman', 'Times', 'DejaVu Serif', serif; text-anchor: middle; fill: #253442" x="191.481665" y="170.288384" transform="rotate(-0 191.481665 170.288384)">250</text>
     </g>
    </g>
    <g id="xtick_5">
     <g id="line2d_5">
      <g>
       <use xlink:href="#m510d884469" x="240.777503" y="158.088189" style="fill: #253442; stroke: #253442; stroke-width: 0.8"/>
      </g>
     </g>
     <g id="text_5">
      <text style="font-size: 7.5px; font-family: 'Times New Roman', 'Times', 'DejaVu Serif', serif; text-anchor: middle; fill: #253442" x="240.777503" y="170.288384" transform="rotate(-0 240.777503 170.288384)">300</text>
     </g>
    </g>
    <g id="text_6">
     <text style="font-size: 8px; font-family: 'Times New Roman', 'Times', 'DejaVu Serif', serif; text-anchor: middle; fill: #253442" x="142.185827" y="181.462037" transform="rotate(-0 142.185827 181.462037)">Number of real function evaluations</text>
    </g>
   </g>
   <g id="matplotlib.axis_2">
    <g id="ytick_1">
     <g id="line2d_6">
      <defs>
       <path id="m93b32f0ab8" d="M 0 0 
L -3.5 0 
" style="stroke: #253442; stroke-width: 0.8"/>
      </defs>
      <g>
       <use xlink:href="#m93b32f0ab8" x="38.664567" y="141.367147" style="fill: #253442; stroke: #253442; stroke-width: 0.8"/>
      </g>
     </g>
     <g id="text_7">
      <text style="font-size: 7.5px; font-family: 'Times New Roman', 'Times', 'DejaVu Serif', serif; text-anchor: end; fill: #253442" x="31.664567" y="143.967245" transform="rotate(-0 31.664567 143.967245)">6</text>
     </g>
    </g>
    <g id="ytick_2">
     <g id="line2d_7">
      <g>
       <use xlink:href="#m93b32f0ab8" x="38.664567" y="84.616845" style="fill: #253442; stroke: #253442; stroke-width: 0.8"/>
      </g>
     </g>
     <g id="text_8">
      <text style="font-size: 7.5px; font-family: 'Times New Roman', 'Times', 'DejaVu Serif', serif; text-anchor: end; fill: #253442" x="31.664567" y="87.216943" transform="rotate(-0 31.664567 87.216943)">8</text>
     </g>
    </g>
    <g id="ytick_3">
     <g id="line2d_8">
      <g>
       <use xlink:href="#m93b32f0ab8" x="38.664567" y="27.866542" style="fill: #253442; stroke: #253442; stroke-width: 0.8"/>
      </g>
     </g>
     <g id="text_9">
      <text style="font-size: 7.5px; font-family: 'Times New Roman', 'Times', 'DejaVu Serif', serif; text-anchor: end; fill: #253442" x="31.664567" y="30.46664" transform="rotate(-0 31.664567 30.46664)">10</text>
     </g>
    </g>
    <g id="text_10">
     <text style="font-size: 8px; font-family: 'Times New Roman', 'Times', 'DejaVu Serif', serif; text-anchor: middle; fill: #253442" x="18.438004" y="87.930709" transform="rotate(-90 18.438004 87.930709)">IGD</text>
    </g>
   </g>
   <g id="patch_3">
    <path d="M 38.664567 158.088189 
L 38.664567 17.773228 
" style="fill: none; stroke: #253442; stroke-width: 0.65; stroke-linejoin: miter; stroke-linecap: square"/>
   </g>
   <g id="patch_4">
    <path d="M 245.707087 158.088189 
L 245.707087 17.773228 
" style="fill: none; stroke: #253442; stroke-width: 0.65; stroke-linejoin: miter; stroke-linecap: square"/>
   </g>
   <g id="patch_5">
    <path d="M 38.664567 158.088189 
L 245.707087 158.088189 
" style="fill: none; stroke: #253442; stroke-width: 0.65; stroke-linejoin: miter; stroke-linecap: square"/>
   </g>
   <g id="patch_6">
    <path d="M 38.664567 17.773228 
L 245.707087 17.773228 
" style="fill: none; stroke: #253442; stroke-width: 0.65; stroke-linejoin: miter; stroke-linecap: square"/>
   </g>
   <g id="text_11">
    <!-- (b) WFG8, $M=10$ -->
    <g style="fill: #253442" transform="translate(38.664567 13.773228)">
     <text>
      <tspan x="0" y="-0.09375" style="font-size: 8.5px; font-family: 'Times New Roman'; fill: #253442">(</tspan>
      <tspan x="2.830566" y="-0.09375" style="font-size: 8.5px; font-family: 'Times New Roman'; fill: #253442">b</tspan>
      <tspan x="7.080566" y="-0.09375" style="font-size: 8.5px; font-family: 'Times New Roman'; fill: #253442">)</tspan>
      <tspan x="9.911133" y="-0.09375" style="font-size: 8.5px; font-family: 'Times New Roman'; fill: #253442"> </tspan>
      <tspan x="12.036133" y="-0.09375" style="font-size: 8.5px; font-family: 'Times New Roman'; fill: #253442">W</tspan>
      <tspan x="20.058838" y="-0.09375" style="font-size: 8.5px; font-family: 'Times New Roman'; fill: #253442">F</tspan>
      <tspan x="24.786133" y="-0.09375" style="font-size: 8.5px; font-family: 'Times New Roman'; fill: #253442">G</tspan>
      <tspan x="30.924561" y="-0.09375" style="font-size: 8.5px; font-family: 'Times New Roman'; fill: #253442">8</tspan>
      <tspan x="35.174561" y="-0.09375" style="font-size: 8.5px; font-family: 'Times New Roman'; fill: #253442">,</tspan>
      <tspan x="37.299561" y="-0.09375" style="font-size: 8.5px; font-family: 'Times New Roman'; fill: #253442"> </tspan>
      <tspan x="39.424561" y="-0.09375" style="font-style: italic; font-size: 8.5px; font-family: 'STIXGeneral'; fill: #253442">M</tspan>
      <tspan x="48.205142" y="-0.09375" style="font-size: 8.5px; font-family: 'STIXGeneral'; fill: #253442">=</tspan>
      <tspan x="55.727713" y="-0.09375" style="font-size: 8.5px; font-family: 'STIXGeneral'; fill: #253442">1</tspan>
      <tspan x="59.977759" y="-0.09375" style="font-size: 8.5px; font-family: 'STIXGeneral'; fill: #253442">0</tspan>
     </text>
    </g>
   </g>
   <g id="line2d_9">
    <path d="M 43.594151 68.084622 
L 68.24207 81.836242 
L 92.889989 89.118355 
L 117.537908 93.055547 
L 142.185827 101.972802 
L 166.833746 104.632971 
L 191.481665 107.30473 
L 216.129584 109.056871 
L 240.777503 111.374922 
" clip-path="url(#p3de5d2d675)" style="fill: none; stroke: #24658c; stroke-linecap: square"/>
    <defs>
     <path id="me34b7d2b6e" d="M 0 -1.4 
L -1.4 1.4 
L 1.4 1.4 
z
" style="stroke: #24658c; stroke-width: 0.8; stroke-linejoin: miter"/>
    </defs>
    <g clip-path="url(#p3de5d2d675)">
     <use xlink:href="#me34b7d2b6e" x="43.594151" y="68.084622" style="fill-opacity: 0; stroke: #24658c; stroke-width: 0.8; stroke-linejoin: miter"/>
     <use xlink:href="#me34b7d2b6e" x="68.24207" y="81.836242" style="fill-opacity: 0; stroke: #24658c; stroke-width: 0.8; stroke-linejoin: miter"/>
     <use xlink:href="#me34b7d2b6e" x="92.889989" y="89.118355" style="fill-opacity: 0; stroke: #24658c; stroke-width: 0.8; stroke-linejoin: miter"/>
     <use xlink:href="#me34b7d2b6e" x="117.537908" y="93.055547" style="fill-opacity: 0; stroke: #24658c; stroke-width: 0.8; stroke-linejoin: miter"/>
     <use xlink:href="#me34b7d2b6e" x="142.185827" y="101.972802" style="fill-opacity: 0; stroke: #24658c; stroke-width: 0.8; stroke-linejoin: miter"/>
     <use xlink:href="#me34b7d2b6e" x="166.833746" y="104.632971" style="fill-opacity: 0; stroke: #24658c; stroke-width: 0.8; stroke-linejoin: miter"/>
     <use xlink:href="#me34b7d2b6e" x="191.481665" y="107.30473" style="fill-opacity: 0; stroke: #24658c; stroke-width: 0.8; stroke-linejoin: miter"/>
     <use xlink:href="#me34b7d2b6e" x="216.129584" y="109.056871" style="fill-opacity: 0; stroke: #24658c; stroke-width: 0.8; stroke-linejoin: miter"/>
     <use xlink:href="#me34b7d2b6e" x="240.777503" y="111.374922" style="fill-opacity: 0; stroke: #24658c; stroke-width: 0.8; stroke-linejoin: miter"/>
    </g>
   </g>
   <g id="line2d_10">
    <path d="M 43.594151 66.873963 
L 68.24207 87.830594 
L 92.889989 105.188788 
L 117.537908 111.154851 
L 142.185827 120.765626 
L 166.833746 123.899953 
L 191.481665 128.832167 
L 216.129584 131.996977 
L 240.777503 135.307666 
" clip-path="url(#p3de5d2d675)" style="fill: none; stroke: #ad5f25; stroke-linecap: square"/>
    <defs>
     <path id="mc642a27631" d="M 0 1.4 
C 0.371284 1.4 0.727412 1.252487 0.989949 0.989949 
C 1.252487 0.727412 1.4 0.371284 1.4 0 
C 1.4 -0.371284 1.252487 -0.727412 0.989949 -0.989949 
C 0.727412 -1.252487 0.371284 -1.4 0 -1.4 
C -0.371284 -1.4 -0.727412 -1.252487 -0.989949 -0.989949 
C -1.252487 -0.727412 -1.4 -0.371284 -1.4 0 
C -1.4 0.371284 -1.252487 0.727412 -0.989949 0.989949 
C -0.727412 1.252487 -0.371284 1.4 0 1.4 
z
" style="stroke: #ad5f25; stroke-width: 0.8"/>
    </defs>
    <g clip-path="url(#p3de5d2d675)">
     <use xlink:href="#mc642a27631" x="43.594151" y="66.873963" style="fill-opacity: 0; stroke: #ad5f25; stroke-width: 0.8"/>
     <use xlink:href="#mc642a27631" x="68.24207" y="87.830594" style="fill-opacity: 0; stroke: #ad5f25; stroke-width: 0.8"/>
     <use xlink:href="#mc642a27631" x="92.889989" y="105.188788" style="fill-opacity: 0; stroke: #ad5f25; stroke-width: 0.8"/>
     <use xlink:href="#mc642a27631" x="117.537908" y="111.154851" style="fill-opacity: 0; stroke: #ad5f25; stroke-width: 0.8"/>
     <use xlink:href="#mc642a27631" x="142.185827" y="120.765626" style="fill-opacity: 0; stroke: #ad5f25; stroke-width: 0.8"/>
     <use xlink:href="#mc642a27631" x="166.833746" y="123.899953" style="fill-opacity: 0; stroke: #ad5f25; stroke-width: 0.8"/>
     <use xlink:href="#mc642a27631" x="191.481665" y="128.832167" style="fill-opacity: 0; stroke: #ad5f25; stroke-width: 0.8"/>
     <use xlink:href="#mc642a27631" x="216.129584" y="131.996977" style="fill-opacity: 0; stroke: #ad5f25; stroke-width: 0.8"/>
     <use xlink:href="#mc642a27631" x="240.777503" y="135.307666" style="fill-opacity: 0; stroke: #ad5f25; stroke-width: 0.8"/>
    </g>
   </g>
   <g id="line2d_11">
    <path d="M 68.24207 72.542907 
L 92.889989 74.478798 
L 117.537908 77.483677 
L 142.185827 80.973137 
L 166.833746 83.143464 
L 191.481665 86.556113 
L 216.129584 88.369686 
L 240.777503 93.019044 
" clip-path="url(#p3de5d2d675)" style="fill: none; stroke: #28756b; stroke-linecap: square"/>
    <defs>
     <path id="m17d02f4b2c" d="M 0 -1.4 
L -0.31432 -0.432624 
L -1.331479 -0.432624 
L -0.50858 0.165248 
L -0.822899 1.132624 
L -0 0.534752 
L 0.822899 1.132624 
L 0.50858 0.165248 
L 1.331479 -0.432624 
L 0.31432 -0.432624 
z
" style="stroke: #28756b; stroke-width: 0.8; stroke-linejoin: bevel"/>
    </defs>
    <g clip-path="url(#p3de5d2d675)">
     <use xlink:href="#m17d02f4b2c" x="68.24207" y="72.542907" style="fill-opacity: 0; stroke: #28756b; stroke-width: 0.8; stroke-linejoin: bevel"/>
     <use xlink:href="#m17d02f4b2c" x="92.889989" y="74.478798" style="fill-opacity: 0; stroke: #28756b; stroke-width: 0.8; stroke-linejoin: bevel"/>
     <use xlink:href="#m17d02f4b2c" x="117.537908" y="77.483677" style="fill-opacity: 0; stroke: #28756b; stroke-width: 0.8; stroke-linejoin: bevel"/>
     <use xlink:href="#m17d02f4b2c" x="142.185827" y="80.973137" style="fill-opacity: 0; stroke: #28756b; stroke-width: 0.8; stroke-linejoin: bevel"/>
     <use xlink:href="#m17d02f4b2c" x="166.833746" y="83.143464" style="fill-opacity: 0; stroke: #28756b; stroke-width: 0.8; stroke-linejoin: bevel"/>
     <use xlink:href="#m17d02f4b2c" x="191.481665" y="86.556113" style="fill-opacity: 0; stroke: #28756b; stroke-width: 0.8; stroke-linejoin: bevel"/>
     <use xlink:href="#m17d02f4b2c" x="216.129584" y="88.369686" style="fill-opacity: 0; stroke: #28756b; stroke-width: 0.8; stroke-linejoin: bevel"/>
     <use xlink:href="#m17d02f4b2c" x="240.777503" y="93.019044" style="fill-opacity: 0; stroke: #28756b; stroke-width: 0.8; stroke-linejoin: bevel"/>
    </g>
   </g>
   <g id="line2d_12">
    <path d="M 43.594151 66.440236 
L 68.24207 76.848638 
L 92.889989 79.827158 
L 117.537908 83.665514 
L 142.185827 88.161221 
L 166.833746 92.881799 
L 191.481665 96.271705 
L 216.129584 99.661922 
L 240.777503 102.04095 
" clip-path="url(#p3de5d2d675)" style="fill: none; stroke: #5c5187; stroke-linecap: square"/>
    <defs>
     <path id="mbaf79947f3" d="M -1.4 1.4 
L 1.4 1.4 
L 1.4 -1.4 
L -1.4 -1.4 
z
" style="stroke: #5c5187; stroke-width: 0.8; stroke-linejoin: miter"/>
    </defs>
    <g clip-path="url(#p3de5d2d675)">
     <use xlink:href="#mbaf79947f3" x="43.594151" y="66.440236" style="fill-opacity: 0; stroke: #5c5187; stroke-width: 0.8; stroke-linejoin: miter"/>
     <use xlink:href="#mbaf79947f3" x="68.24207" y="76.848638" style="fill-opacity: 0; stroke: #5c5187; stroke-width: 0.8; stroke-linejoin: miter"/>
     <use xlink:href="#mbaf79947f3" x="92.889989" y="79.827158" style="fill-opacity: 0; stroke: #5c5187; stroke-width: 0.8; stroke-linejoin: miter"/>
     <use xlink:href="#mbaf79947f3" x="117.537908" y="83.665514" style="fill-opacity: 0; stroke: #5c5187; stroke-width: 0.8; stroke-linejoin: miter"/>
     <use xlink:href="#mbaf79947f3" x="142.185827" y="88.161221" style="fill-opacity: 0; stroke: #5c5187; stroke-width: 0.8; stroke-linejoin: miter"/>
     <use xlink:href="#mbaf79947f3" x="166.833746" y="92.881799" style="fill-opacity: 0; stroke: #5c5187; stroke-width: 0.8; stroke-linejoin: miter"/>
     <use xlink:href="#mbaf79947f3" x="191.481665" y="96.271705" style="fill-opacity: 0; stroke: #5c5187; stroke-width: 0.8; stroke-linejoin: miter"/>
     <use xlink:href="#mbaf79947f3" x="216.129584" y="99.661922" style="fill-opacity: 0; stroke: #5c5187; stroke-width: 0.8; stroke-linejoin: miter"/>
     <use xlink:href="#mbaf79947f3" x="240.777503" y="102.04095" style="fill-opacity: 0; stroke: #5c5187; stroke-width: 0.8; stroke-linejoin: miter"/>
    </g>
   </g>
   <g id="line2d_13">
    <path d="M 43.594151 66.885098 
L 68.24207 80.160929 
L 92.889989 86.951164 
L 117.537908 89.602011 
L 142.185827 102.604075 
L 166.833746 109.715629 
L 191.481665 127.971986 
L 216.129584 132.917983 
L 240.777503 142.224934 
" clip-path="url(#p3de5d2d675)" style="fill: none; stroke: #7c828b; stroke-linecap: square"/>
    <defs>
     <path id="mab531107cb" d="M -1.4 1.4 
L 1.4 -1.4 
M -1.4 -1.4 
L 1.4 1.4 
" style="stroke: #7c828b; stroke-width: 0.8"/>
    </defs>
    <g clip-path="url(#p3de5d2d675)">
     <use xlink:href="#mab531107cb" x="43.594151" y="66.885098" style="fill-opacity: 0; stroke: #7c828b; stroke-width: 0.8"/>
     <use xlink:href="#mab531107cb" x="68.24207" y="80.160929" style="fill-opacity: 0; stroke: #7c828b; stroke-width: 0.8"/>
     <use xlink:href="#mab531107cb" x="92.889989" y="86.951164" style="fill-opacity: 0; stroke: #7c828b; stroke-width: 0.8"/>
     <use xlink:href="#mab531107cb" x="117.537908" y="89.602011" style="fill-opacity: 0; stroke: #7c828b; stroke-width: 0.8"/>
     <use xlink:href="#mab531107cb" x="142.185827" y="102.604075" style="fill-opacity: 0; stroke: #7c828b; stroke-width: 0.8"/>
     <use xlink:href="#mab531107cb" x="166.833746" y="109.715629" style="fill-opacity: 0; stroke: #7c828b; stroke-width: 0.8"/>
     <use xlink:href="#mab531107cb" x="191.481665" y="127.971986" style="fill-opacity: 0; stroke: #7c828b; stroke-width: 0.8"/>
     <use xlink:href="#mab531107cb" x="216.129584" y="132.917983" style="fill-opacity: 0; stroke: #7c828b; stroke-width: 0.8"/>
     <use xlink:href="#mab531107cb" x="240.777503" y="142.224934" style="fill-opacity: 0; stroke: #7c828b; stroke-width: 0.8"/>
    </g>
   </g>
   <g id="line2d_14">
    <path d="M 43.594151 65.71382 
L 68.24207 74.340553 
L 92.889989 81.818348 
L 117.537908 84.605889 
L 142.185827 92.369803 
L 166.833746 92.672123 
L 191.481665 93.622316 
L 216.129584 101.082394 
L 240.777503 101.679681 
" clip-path="url(#p3de5d2d675)" style="fill: none; stroke: #414b54; stroke-linecap: square"/>
    <defs>
     <path id="mbf2f1fde3e" d="M -1.4 0 
L 1.4 0 
M 0 1.4 
L 0 -1.4 
" style="stroke: #414b54; stroke-width: 0.8"/>
    </defs>
    <g clip-path="url(#p3de5d2d675)">
     <use xlink:href="#mbf2f1fde3e" x="43.594151" y="65.71382" style="fill-opacity: 0; stroke: #414b54; stroke-width: 0.8"/>
     <use xlink:href="#mbf2f1fde3e" x="68.24207" y="74.340553" style="fill-opacity: 0; stroke: #414b54; stroke-width: 0.8"/>
     <use xlink:href="#mbf2f1fde3e" x="92.889989" y="81.818348" style="fill-opacity: 0; stroke: #414b54; stroke-width: 0.8"/>
     <use xlink:href="#mbf2f1fde3e" x="117.537908" y="84.605889" style="fill-opacity: 0; stroke: #414b54; stroke-width: 0.8"/>
     <use xlink:href="#mbf2f1fde3e" x="142.185827" y="92.369803" style="fill-opacity: 0; stroke: #414b54; stroke-width: 0.8"/>
     <use xlink:href="#mbf2f1fde3e" x="166.833746" y="92.672123" style="fill-opacity: 0; stroke: #414b54; stroke-width: 0.8"/>
     <use xlink:href="#mbf2f1fde3e" x="191.481665" y="93.622316" style="fill-opacity: 0; stroke: #414b54; stroke-width: 0.8"/>
     <use xlink:href="#mbf2f1fde3e" x="216.129584" y="101.082394" style="fill-opacity: 0; stroke: #414b54; stroke-width: 0.8"/>
     <use xlink:href="#mbf2f1fde3e" x="240.777503" y="101.679681" style="fill-opacity: 0; stroke: #414b54; stroke-width: 0.8"/>
    </g>
   </g>
   <g id="legend_1">
    <g id="line2d_15">
     <path d="M 138.000055 25.248228 
L 143.850055 25.248228 
L 149.700055 25.248228 
" style="fill: none; stroke: #b23a48; stroke-width: 1.9; stroke-linecap: square"/>
     <defs>
      <path id="m4b97717644" d="M 0 2.545584 
L 2.545584 0 
L 0 -2.545584 
L -2.545584 0 
z
" style="stroke: #b23a48; stroke-width: 0.9; stroke-linejoin: miter"/>
     </defs>
     <g>
      <use xlink:href="#m4b97717644" x="143.850055" y="25.248228" style="fill: #b23a48; stroke: #b23a48; stroke-width: 0.9; stroke-linejoin: miter"/>
     </g>
    </g>
    <g id="text_12">
     <text style="font-size: 6.5px; font-family: 'Times New Roman', 'Times', 'DejaVu Serif', serif; text-anchor: start; fill: #253442" x="152.950055" y="27.523228" transform="rotate(-0 152.950055 27.523228)">PACDIS (ours)</text>
    </g>
    <g id="line2d_16">
     <path d="M 138.000055 33.28106 
L 143.850055 33.28106 
L 149.700055 33.28106 
" style="fill: none; stroke: #24658c; stroke-width: 1.3; stroke-linecap: square"/>
     <defs>
      <path id="m51da32a96f" d="M 0 -1.8 
L -1.8 1.8 
L 1.8 1.8 
z
" style="stroke: #24658c; stroke-width: 0.9; stroke-linejoin: miter"/>
     </defs>
     <g>
      <use xlink:href="#m51da32a96f" x="143.850055" y="33.28106" style="fill-opacity: 0; stroke: #24658c; stroke-width: 0.9; stroke-linejoin: miter"/>
     </g>
    </g>
    <g id="text_13">
     <text style="font-size: 6.5px; font-family: 'Times New Roman', 'Times', 'DejaVu Serif', serif; text-anchor: start; fill: #253442" x="152.950055" y="35.55606" transform="rotate(-0 152.950055 35.55606)">REMO</text>
    </g>
    <g id="line2d_17">
     <path d="M 138.000055 41.313892 
L 143.850055 41.313892 
L 149.700055 41.313892 
" style="fill: none; stroke: #ad5f25; stroke-width: 1.3; stroke-linecap: square"/>
     <defs>
      <path id="m513086d722" d="M 0 1.8 
C 0.477366 1.8 0.935244 1.610341 1.272792 1.272792 
C 1.610341 0.935244 1.8 0.477366 1.8 0 
C 1.8 -0.477366 1.610341 -0.935244 1.272792 -1.272792 
C 0.935244 -1.610341 0.477366 -1.8 0 -1.8 
C -0.477366 -1.8 -0.935244 -1.610341 -1.272792 -1.272792 
C -1.610341 -0.935244 -1.8 -0.477366 -1.8 0 
C -1.8 0.477366 -1.610341 0.935244 -1.272792 1.272792 
C -0.935244 1.610341 -0.477366 1.8 0 1.8 
z
" style="stroke: #ad5f25; stroke-width: 0.9"/>
     </defs>
     <g>
      <use xlink:href="#m513086d722" x="143.850055" y="41.313892" style="fill-opacity: 0; stroke: #ad5f25; stroke-width: 0.9"/>
     </g>
    </g>
    <g id="text_14">
     <text style="font-size: 6.5px; font-family: 'Times New Roman', 'Times', 'DejaVu Serif', serif; text-anchor: start; fill: #253442" x="152.950055" y="43.588892" transform="rotate(-0 152.950055 43.588892)">PIEA</text>
    </g>
    <g id="line2d_18">
     <path d="M 138.000055 49.346724 
L 143.850055 49.346724 
L 149.700055 49.346724 
" style="fill: none; stroke: #28756b; stroke-width: 1.3; stroke-linecap: square"/>
     <defs>
      <path id="m2769d85252" d="M 0 -1.8 
L -0.404125 -0.556231 
L -1.711902 -0.556231 
L -0.653888 0.212461 
L -1.058013 1.456231 
L -0 0.687539 
L 1.058013 1.456231 
L 0.653888 0.212461 
L 1.711902 -0.556231 
L 0.404125 -0.556231 
z
" style="stroke: #28756b; stroke-width: 0.9; stroke-linejoin: bevel"/>
     </defs>
     <g>
      <use xlink:href="#m2769d85252" x="143.850055" y="49.346724" style="fill-opacity: 0; stroke: #28756b; stroke-width: 0.9; stroke-linejoin: bevel"/>
     </g>
    </g>
    <g id="text_15">
     <text style="font-size: 6.5px; font-family: 'Times New Roman', 'Times', 'DejaVu Serif', serif; text-anchor: start; fill: #253442" x="152.950055" y="51.621724" transform="rotate(-0 152.950055 51.621724)">CSEA</text>
    </g>
    <g id="line2d_19">
     <path d="M 198.469352 25.248228 
L 204.319352 25.248228 
L 210.169352 25.248228 
" style="fill: none; stroke: #5c5187; stroke-width: 1.3; stroke-linecap: square"/>
     <defs>
      <path id="m0043fa28b7" d="M -1.8 1.8 
L 1.8 1.8 
L 1.8 -1.8 
L -1.8 -1.8 
z
" style="stroke: #5c5187; stroke-width: 0.9; stroke-linejoin: miter"/>
     </defs>
     <g>
      <use xlink:href="#m0043fa28b7" x="204.319352" y="25.248228" style="fill-opacity: 0; stroke: #5c5187; stroke-width: 0.9; stroke-linejoin: miter"/>
     </g>
    </g>
    <g id="text_16">
     <text style="font-size: 6.5px; font-family: 'Times New Roman', 'Times', 'DejaVu Serif', serif; text-anchor: start; fill: #253442" x="213.419352" y="27.523228" transform="rotate(-0 213.419352 27.523228)">PC-SAEA</text>
    </g>
    <g id="line2d_20">
     <path d="M 198.469352 33.28106 
L 204.319352 33.28106 
L 210.169352 33.28106 
" style="fill: none; stroke: #7c828b; stroke-width: 1.3; stroke-linecap: square"/>
     <defs>
      <path id="m7fcc451f8e" d="M -1.8 1.8 
L 1.8 -1.8 
M -1.8 -1.8 
L 1.8 1.8 
" style="stroke: #7c828b; stroke-width: 0.9"/>
     </defs>
     <g>
      <use xlink:href="#m7fcc451f8e" x="204.319352" y="33.28106" style="fill-opacity: 0; stroke: #7c828b; stroke-width: 0.9"/>
     </g>
    </g>
    <g id="text_17">
     <text style="font-size: 6.5px; font-family: 'Times New Roman', 'Times', 'DejaVu Serif', serif; text-anchor: start; fill: #253442" x="213.419352" y="35.55606" transform="rotate(-0 213.419352 35.55606)">K-RVEA</text>
    </g>
    <g id="line2d_21">
     <path d="M 198.469352 41.313892 
L 204.319352 41.313892 
L 210.169352 41.313892 
" style="fill: none; stroke: #414b54; stroke-width: 1.3; stroke-linecap: square"/>
     <defs>
      <path id="m260dc4a160" d="M -1.8 0 
L 1.8 0 
M 0 1.8 
L 0 -1.8 
" style="stroke: #414b54; stroke-width: 0.9"/>
     </defs>
     <g>
      <use xlink:href="#m260dc4a160" x="204.319352" y="41.313892" style="fill-opacity: 0; stroke: #414b54; stroke-width: 0.9"/>
     </g>
    </g>
    <g id="text_18">
     <text style="font-size: 6.5px; font-family: 'Times New Roman', 'Times', 'DejaVu Serif', serif; text-anchor: start; fill: #253442" x="213.419352" y="43.588892" transform="rotate(-0 213.419352 43.588892)">MCEA/D</text>
    </g>
   </g>
   <g id="line2d_22">
    <path d="M 43.594151 68.238586 
L 68.24207 104.596496 
L 92.889989 119.82518 
L 117.537908 127.169372 
L 142.185827 133.392077 
L 166.833746 137.736996 
L 191.481665 145.169508 
L 216.129584 147.296301 
L 240.777503 151.808973 
" clip-path="url(#p3de5d2d675)" style="fill: none; stroke: #b23a48; stroke-width: 1.6; stroke-linecap: square"/>
    <defs>
     <path id="m50c555dca3" d="M 0 2.12132 
L 2.12132 0 
L 0 -2.12132 
L -2.12132 0 
z
" style="stroke: #b23a48; stroke-linejoin: miter"/>
    </defs>
    <g clip-path="url(#p3de5d2d675)">
     <use xlink:href="#m50c555dca3" x="43.594151" y="68.238586" style="fill: #b23a48; stroke: #b23a48; stroke-linejoin: miter"/>
     <use xlink:href="#m50c555dca3" x="68.24207" y="104.596496" style="fill: #b23a48; stroke: #b23a48; stroke-linejoin: miter"/>
     <use xlink:href="#m50c555dca3" x="92.889989" y="119.82518" style="fill: #b23a48; stroke: #b23a48; stroke-linejoin: miter"/>
     <use xlink:href="#m50c555dca3" x="117.537908" y="127.169372" style="fill: #b23a48; stroke: #b23a48; stroke-linejoin: miter"/>
     <use xlink:href="#m50c555dca3" x="142.185827" y="133.392077" style="fill: #b23a48; stroke: #b23a48; stroke-linejoin: miter"/>
     <use xlink:href="#m50c555dca3" x="166.833746" y="137.736996" style="fill: #b23a48; stroke: #b23a48; stroke-linejoin: miter"/>
     <use xlink:href="#m50c555dca3" x="191.481665" y="145.169508" style="fill: #b23a48; stroke: #b23a48; stroke-linejoin: miter"/>
     <use xlink:href="#m50c555dca3" x="216.129584" y="147.296301" style="fill: #b23a48; stroke: #b23a48; stroke-linejoin: miter"/>
     <use xlink:href="#m50c555dca3" x="240.777503" y="151.808973" style="fill: #b23a48; stroke: #b23a48; stroke-linejoin: miter"/>
    </g>
   </g>
  </g>
 </g>
 <defs>
  <clipPath id="p3de5d2d675">
   <rect x="38.664567" y="17.773228" width="207.04252" height="140.314961"/>
  </clipPath>
 </defs>
</svg>
